<svg xmlns="http://www.w3.org/2000/svg" width="385" height="291" viewBox="0 0 385 291">
  <g id="Groupe_2" data-name="Groupe 2" transform="translate(-1296 -582.277)">
    <rect id="Rectangle_5" data-name="Rectangle 5" width="385" height="148" transform="translate(1296 582.277)" fill="#fff"/>
    <rect id="Rectangle_6" data-name="Rectangle 6" width="385" height="143" transform="translate(1296 730.277)"/>
    <circle id="Ellipse_1" data-name="Ellipse 1" cx="44" cy="44" r="44" transform="translate(1326 612.277)" fill="#303036"/>
    <circle id="Ellipse_4" data-name="Ellipse 4" cx="44" cy="44" r="44" transform="translate(1326 755.277)" fill="#303036"/>
    <ellipse id="Ellipse_2" data-name="Ellipse 2" cx="44.5" cy="44" rx="44.5" ry="44" transform="translate(1444 612.277)" fill="#fafbff"/>
    <ellipse id="Ellipse_5" data-name="Ellipse 5" cx="44.5" cy="44" rx="44.5" ry="44" transform="translate(1444 755.277)" fill="#fafbff"/>
    <circle id="Ellipse_3" data-name="Ellipse 3" cx="44" cy="44" r="44" transform="translate(1563 612.277)" fill="#6f8cff"/>
    <circle id="Ellipse_6" data-name="Ellipse 6" cx="44" cy="44" r="44" transform="translate(1563 755.277)" fill="#6f8cff"/>
    <text id="_303036" data-name="#303036" transform="translate(1346 660.277)" fill="#fafbff" font-size="10" font-family="SF Pro" font-weight="700"><tspan x="0" y="0">#303036</tspan></text>
    <text id="_303036-2" data-name="#303036" transform="translate(1346 803.277)" fill="#fafbff" font-size="10" font-family="SF Pro" font-weight="700"><tspan x="0" y="0">#303036</tspan></text>
    <text id="_FAFBFF" data-name="#FAFBFF" transform="translate(1466 660.277)" fill="#303036" font-size="10" font-family="SF Pro" font-weight="700"><tspan x="0" y="0">#FAFBFF</tspan></text>
    <text id="_FAFBFF-2" data-name="#FAFBFF" transform="translate(1466 803.277)" fill="#303036" font-size="10" font-family="SF Pro" font-weight="700"><tspan x="0" y="0">#FAFBFF</tspan></text>
    <text id="_6F8CFF" data-name="#6F8CFF" transform="translate(1584 660.277)" fill="#fafbff" font-size="10" font-family="SF Pro" font-weight="700"><tspan x="0" y="0">#6F8CFF</tspan></text>
    <text id="_6F8CFF-2" data-name="#6F8CFF" transform="translate(1584 803.277)" fill="#fafbff" font-size="10" font-family="SF Pro" font-weight="700"><tspan x="0" y="0">#6F8CFF</tspan></text>
  </g>
</svg>
